<svg xmlns="http://www.w3.org/2000/svg" width="512" height="512" viewBox="0 0 82.334 82.334"><path d="M82.334 41.167C82.334 18.467 63.867 0 41.167 0c-.47 0-.934.02-1.401.036v-.01c-.135 0-.266.017-.401.02-.21.01-.421.021-.631.033-.503.024-1.004.055-1.497.114C16.375 2.178 0 19.794 0 41.167c0 22.7 18.467 41.167 41.167 41.167s41.167-18.467 41.167-41.167zM46.359 22.072a5.193 5.193 0 1 1-10.386 0 5.193 5.193 0 0 1 10.386 0zM58.712 60.85c0 10.053-8.497 18.231-18.941 18.231v.034c-20.299-.737-36.588-17.47-36.588-37.948 0-16.67 10.8-30.857 25.768-35.957-5.579 3.616-9.291 9.911-9.291 17.072 0 11.177 9.017 20.271 20.112 20.305v.032c10.444 0 18.94 8.178 18.94 18.231zm-17.545 5.838a5.194 5.194 0 1 1 .001-10.387 5.194 5.194 0 0 1-.001 10.387z" fill="#D3D3D3"/></svg>